<svg width="257" height="56" viewBox="0 0 257 56" fill="none" xmlns="http://www.w3.org/2000/svg">
<path d="M76.6814 42V14.8H85.1214C88.2414 14.8 90.6414 15.7467 92.3214 17.64C94.0014 19.5067 94.8414 22.0933 94.8414 25.4V31.36C94.8414 34.6933 94.0014 37.3067 92.3214 39.2C90.6414 41.0667 88.2414 42 85.1214 42H76.6814ZM85.0414 18.08H80.1614V38.76H85.0414C89.1747 38.76 91.2414 36.2933 91.2414 31.36V25.4C91.2414 20.52 89.1747 18.08 85.0414 18.08ZM117.85 38.76V42H102.65V14.8H117.45V18.08H106.13V26.6H116.25V29.88H106.13V38.76H117.85ZM129.96 39.28C131.64 39.28 132.933 38.92 133.84 38.2C134.747 37.4533 135.2 36.3733 135.2 34.96C135.2 33.7867 134.88 32.8 134.24 32C133.627 31.2 132.613 30.5867 131.2 30.16L127.96 29.2C125.933 28.5867 124.44 27.6667 123.48 26.44C122.52 25.1867 122.04 23.6533 122.04 21.84C122.04 20.4533 122.307 19.2 122.84 18.08C123.4 16.96 124.28 16.0667 125.48 15.4C126.707 14.7333 128.307 14.4 130.28 14.4C131.48 14.4 132.72 14.5467 134 14.84C135.28 15.1067 136.573 15.5467 137.88 16.16L136.76 19.16C135.48 18.6 134.32 18.2 133.28 17.96C132.267 17.6933 131.293 17.56 130.36 17.56C128.84 17.56 127.653 17.88 126.8 18.52C125.973 19.1333 125.56 20.16 125.56 21.6C125.56 22.64 125.84 23.52 126.4 24.24C126.96 24.9333 127.96 25.5067 129.4 25.96L132.64 26.92C136.693 28.12 138.72 30.7067 138.72 34.68C138.72 36.9733 138.027 38.84 136.64 40.28C135.253 41.6933 133.027 42.4 129.96 42.4C128.707 42.4 127.373 42.2533 125.96 41.96C124.573 41.64 123.133 41.1467 121.64 40.48L122.72 37.52C124.133 38.16 125.4 38.6133 126.52 38.88C127.667 39.1467 128.813 39.28 129.96 39.28ZM141.415 18.08V14.8H160.735V18.08H152.815V42H149.335V18.08H141.415ZM169.466 42H165.986V14.8H169.466V42ZM178.478 42V14.8H182.118C184.545 18.2667 186.772 21.76 188.798 25.28C190.852 28.7733 192.772 32.4267 194.558 36.24L194.158 25.84V14.8H197.558V42H193.918C192.052 38.1067 190.118 34.32 188.118 30.64C186.145 26.9333 183.985 23.32 181.638 19.8L181.878 30.88V42H178.478ZM210.075 42H206.595V14.8H210.075V42ZM232.448 30.56H222.568V42H219.088V14.8H233.648V18.08H222.568V27.28H232.448V30.56ZM256.142 14.8L247.822 31.12V42H244.342V31.12L235.982 14.8H239.742L246.262 27.68L252.542 14.8H256.142Z" fill="white"/>
<path d="M31.7941 49.4575C33.7623 52.5191 38.2377 52.5191 40.2059 49.4575L52.5327 30.2824C60.9414 17.2023 51.5498 0 36 0C20.4502 0 11.0586 17.2023 19.4673 30.2824L31.7941 49.4575Z" fill="#F4B393"/>
</svg>
